<svg id="eLmNuBjZX291" xmlns="http://www.w3.org/2000/svg" xmlns:xlink="http://www.w3.org/1999/xlink" viewBox="0 0 172 145" shape-rendering="geometricPrecision" text-rendering="geometricPrecision">
<style><![CDATA[
#eLmNuBjZX293_tr {animation: eLmNuBjZX293_tr__tr 3000ms linear infinite normal forwards}@keyframes eLmNuBjZX293_tr__tr { 0% {transform: translate(851px,703.306534px) rotate(0deg)} 13.333333% {transform: translate(851px,703.306534px) rotate(45deg)} 33.333333% {transform: translate(851px,703.306534px) rotate(90deg)} 53.333333% {transform: translate(851px,703.306534px) rotate(180deg)} 66.666667% {transform: translate(851px,703.306534px) rotate(270deg)} 80% {transform: translate(851px,703.306534px) rotate(360deg)} 100% {transform: translate(851px,703.306534px) rotate(360deg)}}
]]></style>
<g transform="matrix(.1 0 0-.1 0.9 142.830654)"><g id="eLmNuBjZX293_tr" transform="translate(851,703.306534) rotate(0)"><path style="mix-blend-mode:color-burn" d="M90,1356c0-2,164-288,365-635C656,373,826,78,833,64c15-29,19-26,56,42l23,41L596,693c-174,300-316,549-316,551c0,3,286,7,636,8l637,3l29,53l30,52h-761c-419,0-761-2-761-4Z" transform="translate(-851,-703.306534)" fill="#fff"/></g><path d="M577,965l96-165h243c134,0,244-2,244-5c0-2-22-42-49-87-26-46-67-116-91-157l-42-73-59,101-59,101h-59-59L856,483c62-108,117-200,121-204s46,58,92,139c47,81,129,223,183,315c54,93,98,170,98,173c0,2-141,4-312,4h-313l-27,50c-16,28-28,52-28,55s169,6,375,7l375,3l30,53l30,52h-499-499l95-165Z" transform="translate(31.51387-1.17383)" fill="#fff"/></g></svg>
